  0
SECTION
  2
HEADER
  9
$ANGBASE
 50
0.0
  9
$EXTMAX
 10
100.0
 20
100.0
 30
0.0
  9
$INSBASE
 10
0.0
 20
0.0
 30
0.0
  9
$AUNITS
 70
0
  9
$ACADVER
  1
AC1009
  9
$UNITMODE
 70
0
  9
$EXTMIN
 10
0.0
 20
0.0
 30
0.0
  9
$ANGDIR
 70
0
  0
ENDSEC
  0
SECTION
  2
TABLES
  0
TABLE
  2
LTYPE
 70
19
  0
LTYPE
  2
PHANTOM
 70
0
  3
Phantom ______  __  __  ______  __  __  ______
 72
65
 73
6
 40
2.5
 49
1.25
 49
-0.25
 49
0.25
 49
-0.25
 49
0.25
 49
-0.25
  0
LTYPE
  2
DOT2
 70
0
  3
Dot (.5) . . . . . . . . . . . . . . . . . . . 
 72
65
 73
2
 40
0.1
 49
0.0
 49
-0.1
  0
LTYPE
  2
DIVIDE
 70
0
  3
Divide __ . . __ . . __ . . __ . . __ . . __
 72
65
 73
6
 40
1.6
 49
1.0
 49
-0.2
 49
0.0
 49
-0.2
 49
0.0
 49
-0.2
  0
LTYPE
  2
DIVIDEX2
 70
0
  3
Divide (2x) ____  . .  ____  . .  ____  . .  ____
 72
65
 73
6
 40
2.6
 49
2.0
 49
-0.2
 49
0.0
 49
-0.2
 49
0.0
 49
-0.2
  0
LTYPE
  2
CENTER
 70
0
  3
Center ____ _ ____ _ ____ _ ____ _ ____ _ ____
 72
65
 73
4
 40
2.0
 49
1.25
 49
-0.25
 49
0.25
 49
-0.25
  0
LTYPE
  2
DASHDOT
 70
0
  3
Dash dot __ . __ . __ . __ . __ . __ . __ . __
 72
65
 73
4
 40
1.4
 49
1.0
 49
-0.2
 49
0.0
 49
-0.2
  0
LTYPE
  2
CENTERX2
 70
0
  3
Center (2x) ________  __  ________  __  ________
 72
65
 73
4
 40
3.5
 49
2.5
 49
-0.25
 49
0.5
 49
-0.25
  0
LTYPE
  2
PHANTOMX2
 70
0
  3
Phantom (2x)____________    ____    ____    ____________
 72
65
 73
6
 40
4.25
 49
2.5
 49
-0.25
 49
0.5
 49
-0.25
 49
0.5
 49
-0.25
  0
LTYPE
  2
CONTINUOUS
 70
0
  3
Solid
 72
65
 73
0
 40
0.0
  0
LTYPE
  2
PHANTOM2
 70
0
  3
Phantom (.5x) ___ _ _ ___ _ _ ___ _ _ ___ _ _ ___
 72
65
 73
6
 40
1.25
 49
0.625
 49
-0.125
 49
0.125
 49
-0.125
 49
0.125
 49
-0.125
  0
LTYPE
  2
DASHED
 70
0
  3
Dashed __ __ __ __ __ __ __ __ __ __ __ __ __ _
 72
65
 73
2
 40
0.6
 49
0.5
 49
-0.1
  0
LTYPE
  2
DASHED2
 70
0
  3
Dashed (.5x) _ _ _ _ _ _ _ _ _ _ _ _ _ _
 72
65
 73
2
 40
0.3
 49
0.25
 49
-0.05
  0
LTYPE
  2
DASHDOT2
 70
0
  3
Dash dot (.5x) _ . _ . _ . _ . _ . _ . _ . _
 72
65
 73
4
 40
0.7
 49
0.5
 49
-0.1
 49
0.0
 49
-0.1
  0
LTYPE
  2
DOTX2
 70
0
  3
Dot (2x) .    .    .    .    .    .    .    . 
 72
65
 73
2
 40
0.4
 49
0.0
 49
-0.4
  0
LTYPE
  2
DIVIDE2
 70
0
  3
Divide(.5x) _ . _ . _ . _ . _ . _ . _ . _
 72
65
 73
6
 40
0.8
 49
0.5
 49
-0.1
 49
0.0
 49
-0.1
 49
0.0
 49
-0.1
  0
LTYPE
  2
CENTER2
 70
0
  3
Center (.5x) ____ _ ____ _ ____ _ ____ _ ____
 72
65
 73
4
 40
1.0
 49
0.625
 49
-0.125
 49
0.125
 49
-0.125
  0
LTYPE
  2
DASHDOTX2
 70
0
  3
Dash dot (2x) ____  .  ____  .  ____  .  ____
 72
65
 73
4
 40
2.4
 49
2.0
 49
-0.2
 49
0.0
 49
-0.2
  0
LTYPE
  2
DOT
 70
0
  3
Dot .  .  .  .  .  .  .  .  .  .  .  .  .  .  .  .
 72
65
 73
2
 40
0.2
 49
0.0
 49
-0.2
  0
LTYPE
  2
DASHEDX2
 70
0
  3
Dashed (2x) ____  ____  ____  ____  ____  ____
 72
65
 73
2
 40
1.2
 49
1.0
 49
-0.2
  0
ENDTAB
  0
TABLE
  2
LAYER
 70
6
  0
LAYER
  2
INSERT
 70
0
 62
3
  6
CONTINUOUS
  0
LAYER
  2
DIMENSIONS
 70
0
 62
1
  6
CONTINUOUS
  0
LAYER
  2
TABLECONTENT
 70
0
 62
1
  6
CONTINUOUS
  0
LAYER
  2
TABLEBACKGROUND
 70
0
 62
1
  6
CONTINUOUS
  0
LAYER
  2
TABLEGRID
 70
0
 62
1
  6
CONTINUOUS
  0
LAYER
  2
VIEWPORTS
 70
0
 62
7
  6
CONTINUOUS
  0
ENDTAB
  0
TABLE
  2
STYLE
 70
12
  0
STYLE
  2
TIMES
 70
0
 40
0.0
 41
1.0
 42
1.0
 50
0.0
 71
0
  3
times.ttf
  4

  0
STYLE
  2
ARIAL
 70
0
 40
0.0
 41
1.0
 42
1.0
 50
0.0
 71
0
  3
arial.ttf
  4

  0
STYLE
  2
TIMES_BOLD
 70
0
 40
0.0
 41
1.0
 42
1.0
 50
0.0
 71
0
  3
timesbd.ttf
  4

  0
STYLE
  2
ARIAL_BLACK
 70
0
 40
0.0
 41
1.0
 42
1.0
 50
0.0
 71
0
  3
ariblk.ttf
  4

  0
STYLE
  2
TIMES_ITALIC
 70
0
 40
0.0
 41
1.0
 42
1.0
 50
0.0
 71
0
  3
timesi.ttf
  4

  0
STYLE
  2
ISOCPEUR
 70
0
 40
0.0
 41
1.0
 42
1.0
 50
0.0
 71
0
  3
isocpeur.ttf
  4

  0
STYLE
  2
ARIAL_BOLD
 70
0
 40
0.0
 41
1.0
 42
1.0
 50
0.0
 71
0
  3
arialbd.ttf
  4

  0
STYLE
  2
ARIAL_ITALIC
 70
0
 40
0.0
 41
1.0
 42
1.0
 50
0.0
 71
0
  3
ariali.ttf
  4

  0
STYLE
  2
ARIAL_BOLD_ITALIC
 70
0
 40
0.0
 41
1.0
 42
1.0
 50
0.0
 71
0
  3
arialbi.ttf
  4

  0
STYLE
  2
TIMES_BOLD_ITALIC
 70
0
 40
0.0
 41
1.0
 42
1.0
 50
0.0
 71
0
  3
timesbi.ttf
  4

  0
STYLE
  2
ISOCPEUR_ITALIC
 70
0
 40
0.0
 41
1.0
 42
1.0
 50
0.0
 71
0
  3
isocpeui.ttf
  4

  0
STYLE
  2
STANDARD
 70
0
 40
0.0
 41
1.0
 42
1.0
 50
0.0
 71
0
  3
arial.ttf
  4

  0
ENDTAB
  0
TABLE
  2
VIEW
 70
0
  0
ENDTAB
  0
TABLE
  2
APPID
 70
1
  0
APPID
  2
DXFWRITE
 70
0
  0
ENDTAB
  0
TABLE
  2
VPORT
 70
0
  0
ENDTAB
  0
TABLE
  2
UCS
 70
0
  0
ENDTAB
  0
ENDSEC
  0
SECTION
  2
BLOCKS
  0
ENDSEC
  0
SECTION
  2
ENTITIES
  0
VIEWPORT
  8
VIEWPORTS
 67
1
 10
0.0
 20
0.0
 30
0.0
 40
1.0
 41
1.0
 68
1
 69
1
1001
ACAD
1000
MVIEW
1002
{
1070
16
1010
0.0
1020
0.0
1030
0.0
1010
0.0
1020
0.0
1030
0.0
1040
0.0
1040
1.0
1040
0.0
1040
0.0
1040
50.0
1040
0.0
1040
0.0
1070
0
1070
100
1070
1
1070
3
1070
0
1070
0
1070
0
1070
0
1040
0.0
1040
0.0
1040
0.0
1040
0.1
1040
0.1
1040
0.1
1040
0.1
1070
0
1002
{
1002
}
1002
}
  0
TEXT
  8
0
 10
0.0
 20
-3.0
 30
0.0
 40
1.0
  1
Thinkness=3
  0
TEXT
  8
INSERT
 10
0.0
 20
-6.0
 30
0.0
 40
1.0
  1
Thinkness=1
  0
LINE
  8
INSERT
 10
0.0
 20
50.0
 30
0.0
 11
0.0
 21
120.0
 31
0.0
  0
LINE
  8
INSERT
 10
0.0
 20
120.0
 30
0.0
 11
41.0
 21
120.0
 31
0.0
  0
LINE
  8
INSERT
 10
41.0
 20
120.0
 30
0.0
 11
41.0
 21
50.0
 31
0.0
  0
LINE
  8
INSERT
 10
41.0
 20
50.0
 30
0.0
 11
0.0
 21
50.0
 31
0.0
  0
LINE
  8
INSERT
 10
41.0
 20
50.0
 30
0.0
 11
41.0
 21
120.0
 31
0.0
  0
LINE
  8
INSERT
 10
41.0
 20
120.0
 30
0.0
 11
184.0
 21
120.0
 31
0.0
  0
LINE
  8
INSERT
 10
184.0
 20
120.0
 30
0.0
 11
184.0
 21
50.0
 31
0.0
  0
LINE
  8
INSERT
 10
184.0
 20
50.0
 30
0.0
 11
41.0
 21
50.0
 31
0.0
  0
LINE
  8
INSERT
 10
0.0
 20
-20.0
 30
0.0
 11
0.0
 21
50.0
 31
0.0
  0
LINE
  8
INSERT
 10
0.0
 20
50.0
 30
0.0
 11
41.0
 21
50.0
 31
0.0
  0
LINE
  8
INSERT
 10
41.0
 20
50.0
 30
0.0
 11
41.0
 21
-20.0
 31
0.0
  0
LINE
  8
INSERT
 10
41.0
 20
-20.0
 30
0.0
 11
0.0
 21
-20.0
 31
0.0
  0
LINE
  8
INSERT
 10
41.0
 20
-20.0
 30
0.0
 11
41.0
 21
50.0
 31
0.0
  0
LINE
  8
INSERT
 10
41.0
 20
50.0
 30
0.0
 11
184.0
 21
50.0
 31
0.0
  0
LINE
  8
INSERT
 10
184.0
 20
50.0
 30
0.0
 11
184.0
 21
-20.0
 31
0.0
  0
LINE
  8
INSERT
 10
184.0
 20
-20.0
 30
0.0
 11
41.0
 21
-20.0
 31
0.0
  0
LINE
 62
7
  8
0
 10
3.0
 20
3.0
 30
0.0
 11
3.0
 21
12.0
 31
0.0
  0
LINE
 62
7
  8
0
 10
3.0
 20
12.0
 30
0.0
 11
0.0
 21
12.0
 31
0.0
  0
LINE
 62
7
  8
0
 10
0.0
 20
12.0
 30
0.0
 11
0.0
 21
22.0
 31
0.0
  0
LINE
 62
7
  8
0
 10
0.0
 20
22.0
 30
0.0
 11
3.0
 21
22.0
 31
0.0
  0
LINE
 62
7
  8
0
 10
3.0
 20
22.0
 30
0.0
 11
3.0
 21
78.0
 31
0.0
  0
LINE
 62
7
  8
0
 10
3.0
 20
78.0
 30
0.0
 11
0.0
 21
78.0
 31
0.0
  0
LINE
 62
7
  8
0
 10
0.0
 20
78.0
 30
0.0
 11
0.0
 21
88.0
 31
0.0
  0
LINE
 62
7
  8
0
 10
0.0
 20
88.0
 30
0.0
 11
3.0
 21
88.0
 31
0.0
  0
LINE
 62
7
  8
0
 10
3.0
 20
88.0
 30
0.0
 11
3.0
 21
97.0
 31
0.0
  0
LINE
 62
7
  8
0
 10
3.0
 20
97.0
 30
0.0
 11
12.0
 21
97.0
 31
0.0
  0
LINE
 62
7
  8
0
 10
12.0
 20
97.0
 30
0.0
 11
12.0
 21
100.0
 31
0.0
  0
LINE
 62
7
  8
0
 10
12.0
 20
100.0
 30
0.0
 11
22.0
 21
100.0
 31
0.0
  0
LINE
 62
7
  8
0
 10
22.0
 20
100.0
 30
0.0
 11
22.0
 21
97.0
 31
0.0
  0
LINE
 62
7
  8
0
 10
22.0
 20
97.0
 30
0.0
 11
28.0
 21
97.0
 31
0.0
  0
LINE
 62
7
  8
0
 10
28.0
 20
97.0
 30
0.0
 11
28.0
 21
100.0
 31
0.0
  0
LINE
 62
7
  8
0
 10
28.0
 20
100.0
 30
0.0
 11
38.0
 21
100.0
 31
0.0
  0
LINE
 62
7
  8
0
 10
38.0
 20
100.0
 30
0.0
 11
38.0
 21
97.0
 31
0.0
  0
LINE
 62
7
  8
0
 10
38.0
 20
97.0
 30
0.0
 11
47.0
 21
97.0
 31
0.0
  0
LINE
 62
7
  8
0
 10
47.0
 20
97.0
 30
0.0
 11
47.0
 21
88.0
 31
0.0
  0
LINE
 62
7
  8
0
 10
47.0
 20
88.0
 30
0.0
 11
50.0
 21
88.0
 31
0.0
  0
LINE
 62
7
  8
0
 10
50.0
 20
88.0
 30
0.0
 11
50.0
 21
78.0
 31
0.0
  0
LINE
 62
7
  8
0
 10
50.0
 20
78.0
 30
0.0
 11
47.0
 21
78.0
 31
0.0
  0
LINE
 62
7
  8
0
 10
47.0
 20
78.0
 30
0.0
 11
47.0
 21
22.0
 31
0.0
  0
LINE
 62
7
  8
0
 10
47.0
 20
22.0
 30
0.0
 11
50.0
 21
22.0
 31
0.0
  0
LINE
 62
7
  8
0
 10
50.0
 20
22.0
 30
0.0
 11
50.0
 21
12.0
 31
0.0
  0
LINE
 62
7
  8
0
 10
50.0
 20
12.0
 30
0.0
 11
47.0
 21
12.0
 31
0.0
  0
LINE
 62
7
  8
0
 10
47.0
 20
12.0
 30
0.0
 11
47.0
 21
3.0
 31
0.0
  0
LINE
 62
7
  8
0
 10
47.0
 20
3.0
 30
0.0
 11
38.0
 21
3.0
 31
0.0
  0
LINE
 62
7
  8
0
 10
38.0
 20
3.0
 30
0.0
 11
38.0
 21
0.0
 31
0.0
  0
LINE
 62
7
  8
0
 10
38.0
 20
0.0
 30
0.0
 11
28.0
 21
0.0
 31
0.0
  0
LINE
 62
7
  8
0
 10
28.0
 20
0.0
 30
0.0
 11
28.0
 21
3.0
 31
0.0
  0
LINE
 62
7
  8
0
 10
28.0
 20
3.0
 30
0.0
 11
22.0
 21
3.0
 31
0.0
  0
LINE
 62
7
  8
0
 10
22.0
 20
3.0
 30
0.0
 11
22.0
 21
0.0
 31
0.0
  0
LINE
 62
7
  8
0
 10
22.0
 20
0.0
 30
0.0
 11
12.0
 21
0.0
 31
0.0
  0
LINE
 62
7
  8
0
 10
12.0
 20
0.0
 30
0.0
 11
12.0
 21
3.0
 31
0.0
  0
LINE
 62
7
  8
0
 10
12.0
 20
3.0
 30
0.0
 11
3.0
 21
3.0
 31
0.0
  0
LINE
 62
7
  8
0
 10
3.0
 20
59.4
 30
0.0
 11
47.0
 21
59.4
 31
0.0
  0
LINE
 62
7
  8
0
 10
47.0
 20
3.0
 30
0.0
 11
47.0
 21
12.0
 31
0.0
  0
LINE
 62
7
  8
0
 10
47.0
 20
12.0
 30
0.0
 11
50.0
 21
12.0
 31
0.0
  0
LINE
 62
7
  8
0
 10
50.0
 20
12.0
 30
0.0
 11
50.0
 21
22.0
 31
0.0
  0
LINE
 62
7
  8
0
 10
50.0
 20
22.0
 30
0.0
 11
47.0
 21
22.0
 31
0.0
  0
LINE
 62
7
  8
0
 10
47.0
 20
22.0
 30
0.0
 11
47.0
 21
78.0
 31
0.0
  0
LINE
 62
7
  8
0
 10
47.0
 20
78.0
 30
0.0
 11
50.0
 21
78.0
 31
0.0
  0
LINE
 62
7
  8
0
 10
50.0
 20
78.0
 30
0.0
 11
50.0
 21
88.0
 31
0.0
  0
LINE
 62
7
  8
0
 10
50.0
 20
88.0
 30
0.0
 11
47.0
 21
88.0
 31
0.0
  0
LINE
 62
7
  8
0
 10
47.0
 20
88.0
 30
0.0
 11
47.0
 21
97.0
 31
0.0
  0
LINE
 62
7
  8
0
 10
47.0
 20
97.0
 30
0.0
 11
56.0
 21
97.0
 31
0.0
  0
LINE
 62
7
  8
0
 10
56.0
 20
97.0
 30
0.0
 11
56.0
 21
100.0
 31
0.0
  0
LINE
 62
7
  8
0
 10
56.0
 20
100.0
 30
0.0
 11
66.0
 21
100.0
 31
0.0
  0
LINE
 62
7
  8
0
 10
66.0
 20
100.0
 30
0.0
 11
66.0
 21
97.0
 31
0.0
  0
LINE
 62
7
  8
0
 10
66.0
 20
97.0
 30
0.0
 11
178.0
 21
97.0
 31
0.0
  0
LINE
 62
7
  8
0
 10
178.0
 20
97.0
 30
0.0
 11
178.0
 21
100.0
 31
0.0
  0
LINE
 62
7
  8
0
 10
178.0
 20
100.0
 30
0.0
 11
188.0
 21
100.0
 31
0.0
  0
LINE
 62
7
  8
0
 10
188.0
 20
100.0
 30
0.0
 11
188.0
 21
97.0
 31
0.0
  0
LINE
 62
7
  8
0
 10
188.0
 20
97.0
 30
0.0
 11
197.0
 21
97.0
 31
0.0
  0
LINE
 62
7
  8
0
 10
197.0
 20
97.0
 30
0.0
 11
197.0
 21
88.0
 31
0.0
  0
LINE
 62
7
  8
0
 10
197.0
 20
88.0
 30
0.0
 11
194.0
 21
88.0
 31
0.0
  0
LINE
 62
7
  8
0
 10
194.0
 20
88.0
 30
0.0
 11
194.0
 21
78.0
 31
0.0
  0
LINE
 62
7
  8
0
 10
194.0
 20
78.0
 30
0.0
 11
197.0
 21
78.0
 31
0.0
  0
LINE
 62
7
  8
0
 10
197.0
 20
78.0
 30
0.0
 11
197.0
 21
22.0
 31
0.0
  0
LINE
 62
7
  8
0
 10
197.0
 20
22.0
 30
0.0
 11
194.0
 21
22.0
 31
0.0
  0
LINE
 62
7
  8
0
 10
194.0
 20
22.0
 30
0.0
 11
194.0
 21
12.0
 31
0.0
  0
LINE
 62
7
  8
0
 10
194.0
 20
12.0
 30
0.0
 11
197.0
 21
12.0
 31
0.0
  0
LINE
 62
7
  8
0
 10
197.0
 20
12.0
 30
0.0
 11
197.0
 21
3.0
 31
0.0
  0
LINE
 62
7
  8
0
 10
197.0
 20
3.0
 30
0.0
 11
188.0
 21
3.0
 31
0.0
  0
LINE
 62
7
  8
0
 10
188.0
 20
3.0
 30
0.0
 11
188.0
 21
0.0
 31
0.0
  0
LINE
 62
7
  8
0
 10
188.0
 20
0.0
 30
0.0
 11
178.0
 21
0.0
 31
0.0
  0
LINE
 62
7
  8
0
 10
178.0
 20
0.0
 30
0.0
 11
178.0
 21
3.0
 31
0.0
  0
LINE
 62
7
  8
0
 10
178.0
 20
3.0
 30
0.0
 11
66.0
 21
3.0
 31
0.0
  0
LINE
 62
7
  8
0
 10
66.0
 20
3.0
 30
0.0
 11
66.0
 21
0.0
 31
0.0
  0
LINE
 62
7
  8
0
 10
66.0
 20
0.0
 30
0.0
 11
56.0
 21
0.0
 31
0.0
  0
LINE
 62
7
  8
0
 10
56.0
 20
0.0
 30
0.0
 11
56.0
 21
3.0
 31
0.0
  0
LINE
 62
7
  8
0
 10
56.0
 20
3.0
 30
0.0
 11
47.0
 21
3.0
 31
0.0
  0
LINE
 62
7
  8
0
 10
47.0
 20
59.4
 30
0.0
 11
197.0
 21
59.4
 31
0.0
  0
LINE
 62
7
  8
0
 10
197.0
 20
3.0
 30
0.0
 11
197.0
 21
12.0
 31
0.0
  0
LINE
 62
7
  8
0
 10
197.0
 20
12.0
 30
0.0
 11
194.0
 21
12.0
 31
0.0
  0
LINE
 62
7
  8
0
 10
194.0
 20
12.0
 30
0.0
 11
194.0
 21
22.0
 31
0.0
  0
LINE
 62
7
  8
0
 10
194.0
 20
22.0
 30
0.0
 11
197.0
 21
22.0
 31
0.0
  0
LINE
 62
7
  8
0
 10
197.0
 20
22.0
 30
0.0
 11
197.0
 21
78.0
 31
0.0
  0
LINE
 62
7
  8
0
 10
197.0
 20
78.0
 30
0.0
 11
194.0
 21
78.0
 31
0.0
  0
LINE
 62
7
  8
0
 10
194.0
 20
78.0
 30
0.0
 11
194.0
 21
88.0
 31
0.0
  0
LINE
 62
7
  8
0
 10
194.0
 20
88.0
 30
0.0
 11
197.0
 21
88.0
 31
0.0
  0
LINE
 62
7
  8
0
 10
197.0
 20
88.0
 30
0.0
 11
197.0
 21
97.0
 31
0.0
  0
LINE
 62
7
  8
0
 10
197.0
 20
97.0
 30
0.0
 11
206.0
 21
97.0
 31
0.0
  0
LINE
 62
7
  8
0
 10
206.0
 20
97.0
 30
0.0
 11
206.0
 21
100.0
 31
0.0
  0
LINE
 62
7
  8
0
 10
206.0
 20
100.0
 30
0.0
 11
216.0
 21
100.0
 31
0.0
  0
LINE
 62
7
  8
0
 10
216.0
 20
100.0
 30
0.0
 11
216.0
 21
97.0
 31
0.0
  0
LINE
 62
7
  8
0
 10
216.0
 20
97.0
 30
0.0
 11
222.0
 21
97.0
 31
0.0
  0
LINE
 62
7
  8
0
 10
222.0
 20
97.0
 30
0.0
 11
222.0
 21
100.0
 31
0.0
  0
LINE
 62
7
  8
0
 10
222.0
 20
100.0
 30
0.0
 11
232.0
 21
100.0
 31
0.0
  0
LINE
 62
7
  8
0
 10
232.0
 20
100.0
 30
0.0
 11
232.0
 21
97.0
 31
0.0
  0
LINE
 62
7
  8
0
 10
232.0
 20
97.0
 30
0.0
 11
241.0
 21
97.0
 31
0.0
  0
LINE
 62
7
  8
0
 10
241.0
 20
97.0
 30
0.0
 11
241.0
 21
88.0
 31
0.0
  0
LINE
 62
7
  8
0
 10
241.0
 20
88.0
 30
0.0
 11
244.0
 21
88.0
 31
0.0
  0
LINE
 62
7
  8
0
 10
244.0
 20
88.0
 30
0.0
 11
244.0
 21
78.0
 31
0.0
  0
LINE
 62
7
  8
0
 10
244.0
 20
78.0
 30
0.0
 11
241.0
 21
78.0
 31
0.0
  0
LINE
 62
7
  8
0
 10
241.0
 20
78.0
 30
0.0
 11
241.0
 21
22.0
 31
0.0
  0
LINE
 62
7
  8
0
 10
241.0
 20
22.0
 30
0.0
 11
244.0
 21
22.0
 31
0.0
  0
LINE
 62
7
  8
0
 10
244.0
 20
22.0
 30
0.0
 11
244.0
 21
12.0
 31
0.0
  0
LINE
 62
7
  8
0
 10
244.0
 20
12.0
 30
0.0
 11
241.0
 21
12.0
 31
0.0
  0
LINE
 62
7
  8
0
 10
241.0
 20
12.0
 30
0.0
 11
241.0
 21
3.0
 31
0.0
  0
LINE
 62
7
  8
0
 10
241.0
 20
3.0
 30
0.0
 11
232.0
 21
3.0
 31
0.0
  0
LINE
 62
7
  8
0
 10
232.0
 20
3.0
 30
0.0
 11
232.0
 21
0.0
 31
0.0
  0
LINE
 62
7
  8
0
 10
232.0
 20
0.0
 30
0.0
 11
222.0
 21
0.0
 31
0.0
  0
LINE
 62
7
  8
0
 10
222.0
 20
0.0
 30
0.0
 11
222.0
 21
3.0
 31
0.0
  0
LINE
 62
7
  8
0
 10
222.0
 20
3.0
 30
0.0
 11
216.0
 21
3.0
 31
0.0
  0
LINE
 62
7
  8
0
 10
216.0
 20
3.0
 30
0.0
 11
216.0
 21
0.0
 31
0.0
  0
LINE
 62
7
  8
0
 10
216.0
 20
0.0
 30
0.0
 11
206.0
 21
0.0
 31
0.0
  0
LINE
 62
7
  8
0
 10
206.0
 20
0.0
 30
0.0
 11
206.0
 21
3.0
 31
0.0
  0
LINE
 62
7
  8
0
 10
206.0
 20
3.0
 30
0.0
 11
197.0
 21
3.0
 31
0.0
  0
LINE
 62
7
  8
0
 10
197.0
 20
59.4
 30
0.0
 11
241.0
 21
59.4
 31
0.0
  0
LINE
 62
7
  8
0
 10
241.0
 20
3.0
 30
0.0
 11
241.0
 21
12.0
 31
0.0
  0
LINE
 62
7
  8
0
 10
241.0
 20
12.0
 30
0.0
 11
244.0
 21
12.0
 31
0.0
  0
LINE
 62
7
  8
0
 10
244.0
 20
12.0
 30
0.0
 11
244.0
 21
22.0
 31
0.0
  0
LINE
 62
7
  8
0
 10
244.0
 20
22.0
 30
0.0
 11
241.0
 21
22.0
 31
0.0
  0
LINE
 62
7
  8
0
 10
241.0
 20
22.0
 30
0.0
 11
241.0
 21
78.0
 31
0.0
  0
LINE
 62
7
  8
0
 10
241.0
 20
78.0
 30
0.0
 11
244.0
 21
78.0
 31
0.0
  0
LINE
 62
7
  8
0
 10
244.0
 20
78.0
 30
0.0
 11
244.0
 21
88.0
 31
0.0
  0
LINE
 62
7
  8
0
 10
244.0
 20
88.0
 30
0.0
 11
241.0
 21
88.0
 31
0.0
  0
LINE
 62
7
  8
0
 10
241.0
 20
88.0
 30
0.0
 11
241.0
 21
97.0
 31
0.0
  0
LINE
 62
7
  8
0
 10
241.0
 20
97.0
 30
0.0
 11
250.0
 21
97.0
 31
0.0
  0
LINE
 62
7
  8
0
 10
250.0
 20
97.0
 30
0.0
 11
250.0
 21
100.0
 31
0.0
  0
LINE
 62
7
  8
0
 10
250.0
 20
100.0
 30
0.0
 11
260.0
 21
100.0
 31
0.0
  0
LINE
 62
7
  8
0
 10
260.0
 20
100.0
 30
0.0
 11
260.0
 21
97.0
 31
0.0
  0
LINE
 62
7
  8
0
 10
260.0
 20
97.0
 30
0.0
 11
372.0
 21
97.0
 31
0.0
  0
LINE
 62
7
  8
0
 10
372.0
 20
97.0
 30
0.0
 11
372.0
 21
100.0
 31
0.0
  0
LINE
 62
7
  8
0
 10
372.0
 20
100.0
 30
0.0
 11
382.0
 21
100.0
 31
0.0
  0
LINE
 62
7
  8
0
 10
382.0
 20
100.0
 30
0.0
 11
382.0
 21
97.0
 31
0.0
  0
LINE
 62
7
  8
0
 10
382.0
 20
97.0
 30
0.0
 11
391.0
 21
97.0
 31
0.0
  0
LINE
 62
7
  8
0
 10
391.0
 20
97.0
 30
0.0
 11
391.0
 21
88.0
 31
0.0
  0
LINE
 62
7
  8
0
 10
391.0
 20
88.0
 30
0.0
 11
388.0
 21
88.0
 31
0.0
  0
LINE
 62
7
  8
0
 10
388.0
 20
88.0
 30
0.0
 11
388.0
 21
78.0
 31
0.0
  0
LINE
 62
7
  8
0
 10
388.0
 20
78.0
 30
0.0
 11
391.0
 21
78.0
 31
0.0
  0
LINE
 62
7
  8
0
 10
391.0
 20
78.0
 30
0.0
 11
391.0
 21
22.0
 31
0.0
  0
LINE
 62
7
  8
0
 10
391.0
 20
22.0
 30
0.0
 11
388.0
 21
22.0
 31
0.0
  0
LINE
 62
7
  8
0
 10
388.0
 20
22.0
 30
0.0
 11
388.0
 21
12.0
 31
0.0
  0
LINE
 62
7
  8
0
 10
388.0
 20
12.0
 30
0.0
 11
391.0
 21
12.0
 31
0.0
  0
LINE
 62
7
  8
0
 10
391.0
 20
12.0
 30
0.0
 11
391.0
 21
3.0
 31
0.0
  0
LINE
 62
7
  8
0
 10
391.0
 20
3.0
 30
0.0
 11
382.0
 21
3.0
 31
0.0
  0
LINE
 62
7
  8
0
 10
382.0
 20
3.0
 30
0.0
 11
382.0
 21
0.0
 31
0.0
  0
LINE
 62
7
  8
0
 10
382.0
 20
0.0
 30
0.0
 11
372.0
 21
0.0
 31
0.0
  0
LINE
 62
7
  8
0
 10
372.0
 20
0.0
 30
0.0
 11
372.0
 21
3.0
 31
0.0
  0
LINE
 62
7
  8
0
 10
372.0
 20
3.0
 30
0.0
 11
260.0
 21
3.0
 31
0.0
  0
LINE
 62
7
  8
0
 10
260.0
 20
3.0
 30
0.0
 11
260.0
 21
0.0
 31
0.0
  0
LINE
 62
7
  8
0
 10
260.0
 20
0.0
 30
0.0
 11
250.0
 21
0.0
 31
0.0
  0
LINE
 62
7
  8
0
 10
250.0
 20
0.0
 30
0.0
 11
250.0
 21
3.0
 31
0.0
  0
LINE
 62
7
  8
0
 10
250.0
 20
3.0
 30
0.0
 11
241.0
 21
3.0
 31
0.0
  0
LINE
 62
7
  8
0
 10
241.0
 20
59.4
 30
0.0
 11
391.0
 21
59.4
 31
0.0
  0
LINE
 62
7
  8
0
 10
47.0
 20
97.0
 30
0.0
 11
47.0
 21
106.0
 31
0.0
  0
LINE
 62
7
  8
0
 10
47.0
 20
106.0
 30
0.0
 11
50.0
 21
106.0
 31
0.0
  0
LINE
 62
7
  8
0
 10
50.0
 20
106.0
 30
0.0
 11
50.0
 21
116.0
 31
0.0
  0
LINE
 62
7
  8
0
 10
50.0
 20
116.0
 30
0.0
 11
47.0
 21
116.0
 31
0.0
  0
LINE
 62
7
  8
0
 10
47.0
 20
116.0
 30
0.0
 11
47.0
 21
128.0
 31
0.0
  0
LINE
 62
7
  8
0
 10
47.0
 20
128.0
 30
0.0
 11
50.0
 21
128.0
 31
0.0
  0
LINE
 62
7
  8
0
 10
50.0
 20
128.0
 30
0.0
 11
50.0
 21
138.0
 31
0.0
  0
LINE
 62
7
  8
0
 10
50.0
 20
138.0
 30
0.0
 11
47.0
 21
138.0
 31
0.0
  0
LINE
 62
7
  8
0
 10
47.0
 20
138.0
 30
0.0
 11
47.0
 21
147.0
 31
0.0
  0
LINE
 62
7
  8
0
 10
47.0
 20
147.0
 30
0.0
 11
56.0
 21
147.0
 31
0.0
  0
LINE
 62
7
  8
0
 10
56.0
 20
147.0
 30
0.0
 11
56.0
 21
144.0
 31
0.0
  0
LINE
 62
7
  8
0
 10
56.0
 20
144.0
 30
0.0
 11
66.0
 21
144.0
 31
0.0
  0
LINE
 62
7
  8
0
 10
66.0
 20
144.0
 30
0.0
 11
66.0
 21
147.0
 31
0.0
  0
LINE
 62
7
  8
0
 10
66.0
 20
147.0
 30
0.0
 11
178.0
 21
147.0
 31
0.0
  0
LINE
 62
7
  8
0
 10
178.0
 20
147.0
 30
0.0
 11
178.0
 21
144.0
 31
0.0
  0
LINE
 62
7
  8
0
 10
178.0
 20
144.0
 30
0.0
 11
188.0
 21
144.0
 31
0.0
  0
LINE
 62
7
  8
0
 10
188.0
 20
144.0
 30
0.0
 11
188.0
 21
147.0
 31
0.0
  0
LINE
 62
7
  8
0
 10
188.0
 20
147.0
 30
0.0
 11
197.0
 21
147.0
 31
0.0
  0
LINE
 62
7
  8
0
 10
197.0
 20
147.0
 30
0.0
 11
197.0
 21
138.0
 31
0.0
  0
LINE
 62
7
  8
0
 10
197.0
 20
138.0
 30
0.0
 11
194.0
 21
138.0
 31
0.0
  0
LINE
 62
7
  8
0
 10
194.0
 20
138.0
 30
0.0
 11
194.0
 21
128.0
 31
0.0
  0
LINE
 62
7
  8
0
 10
194.0
 20
128.0
 30
0.0
 11
197.0
 21
128.0
 31
0.0
  0
LINE
 62
7
  8
0
 10
197.0
 20
128.0
 30
0.0
 11
197.0
 21
116.0
 31
0.0
  0
LINE
 62
7
  8
0
 10
197.0
 20
116.0
 30
0.0
 11
194.0
 21
116.0
 31
0.0
  0
LINE
 62
7
  8
0
 10
194.0
 20
116.0
 30
0.0
 11
194.0
 21
106.0
 31
0.0
  0
LINE
 62
7
  8
0
 10
194.0
 20
106.0
 30
0.0
 11
197.0
 21
106.0
 31
0.0
  0
LINE
 62
7
  8
0
 10
197.0
 20
106.0
 30
0.0
 11
197.0
 21
97.0
 31
0.0
  0
LINE
 62
7
  8
0
 10
197.0
 20
97.0
 30
0.0
 11
188.0
 21
97.0
 31
0.0
  0
LINE
 62
7
  8
0
 10
188.0
 20
97.0
 30
0.0
 11
188.0
 21
100.0
 31
0.0
  0
LINE
 62
7
  8
0
 10
188.0
 20
100.0
 30
0.0
 11
178.0
 21
100.0
 31
0.0
  0
LINE
 62
7
  8
0
 10
178.0
 20
100.0
 30
0.0
 11
178.0
 21
97.0
 31
0.0
  0
LINE
 62
7
  8
0
 10
178.0
 20
97.0
 30
0.0
 11
66.0
 21
97.0
 31
0.0
  0
LINE
 62
7
  8
0
 10
66.0
 20
97.0
 30
0.0
 11
66.0
 21
100.0
 31
0.0
  0
LINE
 62
7
  8
0
 10
66.0
 20
100.0
 30
0.0
 11
56.0
 21
100.0
 31
0.0
  0
LINE
 62
7
  8
0
 10
56.0
 20
100.0
 30
0.0
 11
56.0
 21
97.0
 31
0.0
  0
LINE
 62
7
  8
0
 10
56.0
 20
97.0
 30
0.0
 11
47.0
 21
97.0
 31
0.0
  0
LINE
 62
7
  8
0
 10
47.0
 20
-47.0
 30
0.0
 11
47.0
 21
-38.0
 31
0.0
  0
LINE
 62
7
  8
0
 10
47.0
 20
-38.0
 30
0.0
 11
50.0
 21
-38.0
 31
0.0
  0
LINE
 62
7
  8
0
 10
50.0
 20
-38.0
 30
0.0
 11
50.0
 21
-28.0
 31
0.0
  0
LINE
 62
7
  8
0
 10
50.0
 20
-28.0
 30
0.0
 11
47.0
 21
-28.0
 31
0.0
  0
LINE
 62
7
  8
0
 10
47.0
 20
-28.0
 30
0.0
 11
47.0
 21
-16.0
 31
0.0
  0
LINE
 62
7
  8
0
 10
47.0
 20
-16.0
 30
0.0
 11
50.0
 21
-16.0
 31
0.0
  0
LINE
 62
7
  8
0
 10
50.0
 20
-16.0
 30
0.0
 11
50.0
 21
-6.0
 31
0.0
  0
LINE
 62
7
  8
0
 10
50.0
 20
-6.0
 30
0.0
 11
47.0
 21
-6.0
 31
0.0
  0
LINE
 62
7
  8
0
 10
47.0
 20
-6.0
 30
0.0
 11
47.0
 21
3.0
 31
0.0
  0
LINE
 62
7
  8
0
 10
47.0
 20
3.0
 30
0.0
 11
56.0
 21
3.0
 31
0.0
  0
LINE
 62
7
  8
0
 10
56.0
 20
3.0
 30
0.0
 11
56.0
 21
0.0
 31
0.0
  0
LINE
 62
7
  8
0
 10
56.0
 20
0.0
 30
0.0
 11
66.0
 21
0.0
 31
0.0
  0
LINE
 62
7
  8
0
 10
66.0
 20
0.0
 30
0.0
 11
66.0
 21
3.0
 31
0.0
  0
LINE
 62
7
  8
0
 10
66.0
 20
3.0
 30
0.0
 11
178.0
 21
3.0
 31
0.0
  0
LINE
 62
7
  8
0
 10
178.0
 20
3.0
 30
0.0
 11
178.0
 21
0.0
 31
0.0
  0
LINE
 62
7
  8
0
 10
178.0
 20
0.0
 30
0.0
 11
188.0
 21
0.0
 31
0.0
  0
LINE
 62
7
  8
0
 10
188.0
 20
0.0
 30
0.0
 11
188.0
 21
3.0
 31
0.0
  0
LINE
 62
7
  8
0
 10
188.0
 20
3.0
 30
0.0
 11
197.0
 21
3.0
 31
0.0
  0
LINE
 62
7
  8
0
 10
197.0
 20
3.0
 30
0.0
 11
197.0
 21
-6.0
 31
0.0
  0
LINE
 62
7
  8
0
 10
197.0
 20
-6.0
 30
0.0
 11
194.0
 21
-6.0
 31
0.0
  0
LINE
 62
7
  8
0
 10
194.0
 20
-6.0
 30
0.0
 11
194.0
 21
-16.0
 31
0.0
  0
LINE
 62
7
  8
0
 10
194.0
 20
-16.0
 30
0.0
 11
197.0
 21
-16.0
 31
0.0
  0
LINE
 62
7
  8
0
 10
197.0
 20
-16.0
 30
0.0
 11
197.0
 21
-28.0
 31
0.0
  0
LINE
 62
7
  8
0
 10
197.0
 20
-28.0
 30
0.0
 11
194.0
 21
-28.0
 31
0.0
  0
LINE
 62
7
  8
0
 10
194.0
 20
-28.0
 30
0.0
 11
194.0
 21
-38.0
 31
0.0
  0
LINE
 62
7
  8
0
 10
194.0
 20
-38.0
 30
0.0
 11
197.0
 21
-38.0
 31
0.0
  0
LINE
 62
7
  8
0
 10
197.0
 20
-38.0
 30
0.0
 11
197.0
 21
-47.0
 31
0.0
  0
LINE
 62
7
  8
0
 10
197.0
 20
-47.0
 30
0.0
 11
188.0
 21
-47.0
 31
0.0
  0
LINE
 62
7
  8
0
 10
188.0
 20
-47.0
 30
0.0
 11
188.0
 21
-44.0
 31
0.0
  0
LINE
 62
7
  8
0
 10
188.0
 20
-44.0
 30
0.0
 11
178.0
 21
-44.0
 31
0.0
  0
LINE
 62
7
  8
0
 10
178.0
 20
-44.0
 30
0.0
 11
178.0
 21
-47.0
 31
0.0
  0
LINE
 62
7
  8
0
 10
178.0
 20
-47.0
 30
0.0
 11
66.0
 21
-47.0
 31
0.0
  0
LINE
 62
7
  8
0
 10
66.0
 20
-47.0
 30
0.0
 11
66.0
 21
-44.0
 31
0.0
  0
LINE
 62
7
  8
0
 10
66.0
 20
-44.0
 30
0.0
 11
56.0
 21
-44.0
 31
0.0
  0
LINE
 62
7
  8
0
 10
56.0
 20
-44.0
 30
0.0
 11
56.0
 21
-47.0
 31
0.0
  0
LINE
 62
7
  8
0
 10
56.0
 20
-47.0
 30
0.0
 11
47.0
 21
-47.0
 31
0.0
  0
ENDSEC
  0
EOF
